<svg width="149" height="286" viewBox="0 0 149 286" fill="none" xmlns="http://www.w3.org/2000/svg">
<path d="M38.7271 256.183C38.0564 256.183 37.5127 255.639 37.5127 254.968C37.5127 247.816 41.9071 243.384 46.5594 238.691C49.906 235.315 53.3663 231.825 55.8242 226.92C56.1251 226.32 56.8544 226.077 57.4543 226.379C58.0537 226.68 58.2959 227.411 57.9951 228.011C55.3631 233.262 51.6016 237.056 48.2832 240.404C43.8071 244.919 39.9413 248.819 39.9413 254.968C39.9415 255.639 39.398 256.183 38.7271 256.183Z" fill="#FBC300"/>
<path d="M38.6611 256.183C37.9904 256.183 37.4467 255.639 37.4467 254.968C37.4467 248.819 33.5809 244.919 29.1048 240.404C25.7862 237.057 22.0249 233.262 19.3929 228.011C19.0921 227.411 19.3343 226.68 19.9337 226.379C20.5334 226.077 21.2629 226.32 21.5637 226.92C24.0219 231.825 27.4822 235.315 30.8285 238.691C35.4811 243.384 39.8755 247.816 39.8755 254.967C39.8755 255.639 39.3318 256.183 38.6611 256.183Z" fill="#FBC300"/>
<path fill-rule="evenodd" clip-rule="evenodd" d="M20.2984 265.157H56.7303C57.401 265.157 57.9447 264.612 57.9447 263.941V227.465C57.9447 226.794 57.401 226.25 56.7303 226.25H20.2984C19.6277 226.25 19.084 226.794 19.084 227.465V263.941C19.084 264.612 19.6277 265.157 20.2984 265.157ZM55.5156 262.725H21.5125V228.681H55.5156V262.725Z" fill="#FBC300"/>
<path fill-rule="evenodd" clip-rule="evenodd" d="M25.5025 273.841H51.5253C52.196 273.841 52.7397 273.297 52.7397 272.625V263.941C52.7397 263.269 52.196 262.725 51.5253 262.725H25.5025C24.8318 262.725 24.2881 263.269 24.2881 263.941V272.625C24.2881 273.297 24.8318 273.841 25.5025 273.841ZM50.3109 271.41H26.7169V265.157H50.3109V271.41Z" fill="#FBC300"/>
<path fill-rule="evenodd" clip-rule="evenodd" d="M25.5025 228.681H51.5253C52.196 228.681 52.7397 228.137 52.7397 227.465V218.781C52.7397 218.109 52.196 217.565 51.5253 217.565H25.5025C24.8318 217.565 24.2881 218.109 24.2881 218.781V227.465C24.2881 228.137 24.8318 228.681 25.5025 228.681ZM50.3109 226.25H26.7169V219.997H50.3109V226.25Z" fill="#FBC300"/>
<path fill-rule="evenodd" clip-rule="evenodd" d="M27.7578 218.781C27.7578 219.452 28.3015 219.997 28.9722 219.997H48.0556C48.7263 219.997 49.27 219.452 49.27 218.781V216.175C49.27 210.237 44.4448 205.406 38.5139 205.406C32.583 205.406 27.7578 210.237 27.7578 216.175V218.781ZM46.8411 216.175V217.565H30.1865V216.175C30.1865 211.578 33.9222 207.838 38.5138 207.838C43.1054 207.838 46.8411 211.578 46.8411 216.175Z" fill="#FBC300"/>
<path fill-rule="evenodd" clip-rule="evenodd" d="M27.7578 275.231C27.7578 281.169 32.583 286 38.5139 286C44.4448 286 49.27 281.169 49.27 275.231V272.625C49.27 271.954 48.7263 271.41 48.0556 271.41H28.9722C28.3015 271.41 27.7578 271.954 27.7578 272.625V275.231ZM30.1865 275.231V273.841H46.8411V275.231C46.8411 279.828 43.1054 283.568 38.5138 283.568C33.9222 283.568 30.1865 279.828 30.1865 275.231Z" fill="#FBC300"/>
<path d="M61.9346 265.157H56.73C56.0593 265.157 55.5156 264.612 55.5156 263.941C55.5156 263.269 56.0593 262.725 56.73 262.725H61.9346C62.6053 262.725 63.149 263.269 63.149 263.941C63.149 264.612 62.6053 265.157 61.9346 265.157Z" fill="#FBC300"/>
<path d="M20.2979 265.157H15.0933C14.4226 265.157 13.8789 264.612 13.8789 263.941C13.8789 263.269 14.4226 262.725 15.0933 262.725H20.2979C20.9686 262.725 21.5123 263.269 21.5123 263.941C21.5123 264.612 20.9686 265.157 20.2979 265.157Z" fill="#FBC300"/>
<path d="M61.9346 228.681H56.73C56.0593 228.681 55.5156 228.137 55.5156 227.465C55.5156 226.794 56.0593 226.25 56.73 226.25H61.9346C62.6053 226.25 63.149 226.794 63.149 227.465C63.149 228.137 62.6053 228.681 61.9346 228.681Z" fill="#FBC300"/>
<path d="M20.2979 228.681H15.0933C14.4226 228.681 13.8789 228.137 13.8789 227.465C13.8789 226.794 14.4226 226.25 15.0933 226.25H20.2979C20.9686 226.25 21.5123 226.794 21.5123 227.465C21.5123 228.137 20.9686 228.681 20.2979 228.681Z" fill="#FBC300"/>
<path fill-rule="evenodd" clip-rule="evenodd" d="M0 260.814C0 263.4 2.10125 265.504 4.6841 265.504C7.26695 265.504 9.3682 263.4 9.3682 260.814C9.3682 258.228 7.26695 256.125 4.6841 256.125C2.10125 256.125 0 258.228 0 260.814ZM2.42889 260.815C2.42889 259.57 3.44065 258.557 4.68419 258.557C5.92773 258.557 6.9395 259.57 6.9395 260.815C6.9395 262.06 5.92773 263.073 4.68419 263.073C3.44065 263.073 2.42889 262.06 2.42889 260.815Z" fill="#FBC300"/>
<path fill-rule="evenodd" clip-rule="evenodd" d="M64.1895 214.438C64.1895 217.503 66.6798 219.996 69.741 219.996C72.8021 219.996 75.2925 217.503 75.2925 214.438C75.2925 211.373 72.8021 208.88 69.741 208.88C66.6798 208.88 64.1895 211.373 64.1895 214.438ZM66.6181 214.438C66.6181 212.714 68.019 211.312 69.7409 211.312C71.4627 211.312 72.8636 212.714 72.8636 214.438C72.8636 216.162 71.4627 217.565 69.7409 217.565C68.019 217.565 66.6181 216.162 66.6181 214.438Z" fill="#FBC300"/>
<path fill-rule="evenodd" clip-rule="evenodd" d="M20.2984 256.183H56.7303C57.401 256.183 57.9447 255.639 57.9445 254.968C57.9445 247.892 53.5491 243.381 48.8955 238.606L48.8947 238.606C45.5942 235.219 42.1814 231.717 39.7806 226.921C39.5747 226.509 39.1547 226.25 38.6953 226.25H38.6949C38.2357 226.25 37.8155 226.509 37.6096 226.92C35.1439 231.84 31.6297 235.339 28.2312 238.723L28.2303 238.724C23.5268 243.407 19.084 247.83 19.084 254.968C19.084 255.639 19.6277 256.183 20.2984 256.183ZM55.4622 253.752H21.5649C22.0446 248.311 25.7254 244.646 29.9423 240.448C32.8761 237.527 36.1508 234.267 38.6934 229.995C41.1593 234.151 44.3218 237.396 47.1565 240.305C51.336 244.593 54.9842 248.337 55.4622 253.752Z" fill="#FBC300"/>
<path fill-rule="evenodd" clip-rule="evenodd" d="M67.6592 279.573C67.6592 282.159 69.7604 284.263 72.3433 284.263C74.9261 284.263 77.0274 282.159 77.0274 279.573C77.0274 276.987 74.9261 274.884 72.3433 274.884C69.7604 274.884 67.6592 276.987 67.6592 279.573ZM70.0877 279.573C70.0877 278.328 71.0995 277.315 72.343 277.315C73.5866 277.315 74.5983 278.328 74.5983 279.573C74.5983 280.818 73.5866 281.831 72.343 281.831C71.0995 281.831 70.0877 280.818 70.0877 279.573Z" fill="#FBC300"/>
<path d="M54.9949 219.997H22.0328C21.3621 219.997 20.8184 219.452 20.8184 218.781C20.8184 218.109 21.3621 217.565 22.0328 217.565H54.9949C55.6656 217.565 56.2093 218.109 56.2093 218.781C56.2093 219.452 55.6656 219.997 54.9949 219.997Z" fill="#FBC300"/>
<path d="M54.9949 273.841H22.0328C21.3621 273.841 20.8184 273.297 20.8184 272.625C20.8184 271.954 21.3621 271.41 22.0328 271.41H54.9949C55.6656 271.41 56.2093 271.954 56.2093 272.625C56.2093 273.297 55.6656 273.841 54.9949 273.841Z" fill="#FBC300"/>
<path d="M38.6939 254.735C38.0232 254.735 37.4795 254.191 37.4795 253.519V227.465C37.4795 226.794 38.0232 226.25 38.6939 226.25C39.3646 226.25 39.9083 226.794 39.9083 227.465V253.519C39.9083 254.191 39.3646 254.735 38.6939 254.735Z" fill="#FBC300"/>
<path d="M109.622 124.952C110.292 124.952 110.836 124.407 110.836 123.736C110.836 116.585 106.442 112.152 101.789 107.459C98.4427 104.084 94.9823 100.593 92.5244 95.6883C92.2236 95.0882 91.4942 94.8455 90.8943 95.1467C90.2949 95.4479 90.0528 96.1786 90.3536 96.7787C92.9855 102.03 96.747 105.824 100.065 109.172C104.542 113.687 108.407 117.587 108.407 123.736C108.407 124.407 108.951 124.952 109.622 124.952Z" fill="#FBC300"/>
<path d="M109.689 124.952C110.359 124.952 110.903 124.407 110.903 123.736C110.903 117.587 114.769 113.687 119.245 109.172C122.563 105.825 126.325 102.03 128.957 96.7787C129.258 96.1786 129.015 95.4479 128.416 95.1467C127.816 94.8453 127.087 95.088 126.786 95.6881C124.328 100.593 120.867 104.083 117.521 107.459C112.869 112.152 108.474 116.584 108.474 123.736C108.474 124.407 109.018 124.952 109.689 124.952Z" fill="#FBC300"/>
<path fill-rule="evenodd" clip-rule="evenodd" d="M128.051 133.925H91.6193C90.9486 133.925 90.4049 133.38 90.4049 132.709V96.2335C90.4049 95.562 90.9486 95.0176 91.6193 95.0176H128.051C128.722 95.0176 129.266 95.562 129.266 96.2335V132.709C129.266 133.38 128.722 133.925 128.051 133.925ZM92.8334 131.493H126.837V97.4493H92.8334V131.493Z" fill="#FBC300"/>
<path fill-rule="evenodd" clip-rule="evenodd" d="M122.847 142.609H96.8243C96.1537 142.609 95.6099 142.065 95.6099 141.394V132.709C95.6099 132.037 96.1537 131.493 96.8243 131.493H122.847C123.518 131.493 124.062 132.037 124.062 132.709V141.394C124.062 142.065 123.518 142.609 122.847 142.609ZM98.0391 140.178H121.633V133.925H98.0391V140.178Z" fill="#FBC300"/>
<path fill-rule="evenodd" clip-rule="evenodd" d="M122.847 97.4494H96.8243C96.1537 97.4494 95.6099 96.905 95.6099 96.2335V87.5489C95.6099 86.8774 96.1537 86.333 96.8243 86.333H122.847C123.518 86.333 124.062 86.8774 124.062 87.5489V96.2335C124.062 96.905 123.518 97.4494 122.847 97.4494ZM98.0391 95.0178H121.633V88.7649H98.0391V95.0178Z" fill="#FBC300"/>
<path fill-rule="evenodd" clip-rule="evenodd" d="M120.592 87.5488C120.592 88.2203 120.048 88.7647 119.377 88.7647H100.294C99.6233 88.7647 99.0796 88.2203 99.0796 87.5488V84.9434C99.0796 79.0054 103.905 74.1745 109.836 74.1745C115.767 74.1745 120.592 79.0054 120.592 84.9434V87.5488ZM101.508 84.9435V86.333H118.163V84.9435C118.163 80.3463 114.427 76.6062 109.835 76.6062C105.244 76.6062 101.508 80.3463 101.508 84.9435Z" fill="#FBC300"/>
<path fill-rule="evenodd" clip-rule="evenodd" d="M120.592 143.999C120.592 149.937 115.767 154.768 109.836 154.768C103.905 154.768 99.0796 149.937 99.0796 143.999V141.394C99.0796 140.722 99.6233 140.178 100.294 140.178H119.377C120.048 140.178 120.592 140.722 120.592 141.394V143.999ZM118.163 143.999V142.609H101.508V143.999C101.508 148.596 105.244 152.336 109.835 152.336C114.427 152.336 118.163 148.596 118.163 143.999Z" fill="#FBC300"/>
<path d="M86.415 133.925H91.6196C92.2903 133.925 92.834 133.38 92.834 132.709C92.834 132.037 92.2903 131.493 91.6196 131.493H86.415C85.7443 131.493 85.2006 132.037 85.2006 132.709C85.2006 133.38 85.7443 133.925 86.415 133.925Z" fill="#FBC300"/>
<path d="M128.052 133.925H133.256C133.927 133.925 134.471 133.38 134.471 132.709C134.471 132.037 133.927 131.493 133.256 131.493H128.052C127.381 131.493 126.837 132.037 126.837 132.709C126.837 133.38 127.381 133.925 128.052 133.925Z" fill="#FBC300"/>
<path d="M86.415 97.4493H91.6196C92.2903 97.4493 92.834 96.905 92.834 96.2335C92.834 95.562 92.2903 95.0176 91.6196 95.0176H86.415C85.7443 95.0176 85.2006 95.562 85.2006 96.2335C85.2006 96.905 85.7443 97.4493 86.415 97.4493Z" fill="#FBC300"/>
<path d="M128.052 97.4493H133.256C133.927 97.4493 134.471 96.905 134.471 96.2335C134.471 95.562 133.927 95.0176 133.256 95.0176H128.052C127.381 95.0176 126.837 95.562 126.837 96.2335C126.837 96.905 127.381 97.4493 128.052 97.4493Z" fill="#FBC300"/>
<path fill-rule="evenodd" clip-rule="evenodd" d="M148.35 129.583C148.35 132.168 146.248 134.272 143.666 134.272C141.083 134.272 138.981 132.168 138.981 129.583C138.981 126.997 141.083 124.893 143.666 124.893C146.248 124.893 148.35 126.997 148.35 129.583ZM145.921 129.583C145.921 128.338 144.909 127.325 143.666 127.325C142.422 127.325 141.411 128.338 141.411 129.583C141.411 130.828 142.422 131.841 143.666 131.841C144.909 131.841 145.921 130.828 145.921 129.583Z" fill="#FBC300"/>
<path fill-rule="evenodd" clip-rule="evenodd" d="M84.1602 83.2064C84.1602 86.2712 81.6698 88.7646 78.6086 88.7646C75.5475 88.7646 73.0571 86.2712 73.0571 83.2064C73.0571 80.1416 75.5475 77.6482 78.6086 77.6482C81.6698 77.6482 84.1602 80.1416 84.1602 83.2064ZM81.7309 83.2064C81.7309 81.4825 80.33 80.0799 78.6082 80.0799C76.8863 80.0799 75.4854 81.4825 75.4854 83.2064C75.4854 84.9303 76.8863 86.3328 78.6082 86.3328C80.33 86.3328 81.7309 84.9303 81.7309 83.2064Z" fill="#FBC300"/>
<path fill-rule="evenodd" clip-rule="evenodd" d="M128.051 124.951H91.6193C90.9486 124.951 90.4049 124.407 90.4051 123.736C90.4051 116.66 94.8005 112.149 99.4541 107.374L99.4549 107.374C102.755 103.987 106.168 100.485 108.569 95.6888C108.775 95.2775 109.195 95.0176 109.654 95.0176H109.655C110.114 95.0176 110.534 95.2771 110.74 95.6882C113.206 100.608 116.72 104.107 120.118 107.491L120.119 107.492C124.823 112.175 129.266 116.598 129.266 123.736C129.266 124.407 128.722 124.951 128.051 124.951ZM92.8861 122.52H126.783C126.304 117.08 122.623 113.415 118.406 109.216C115.472 106.295 112.197 103.035 109.655 98.7626C107.189 102.919 104.026 106.164 101.192 109.073C97.0122 113.361 93.364 117.105 92.8861 122.52Z" fill="#FBC300"/>
<path fill-rule="evenodd" clip-rule="evenodd" d="M80.6904 148.341C80.6904 150.927 78.5892 153.031 76.0063 153.031C73.4235 153.031 71.3222 150.927 71.3222 148.341C71.3222 145.755 73.4235 143.652 76.0063 143.652C78.5892 143.652 80.6904 145.755 80.6904 148.341ZM78.2613 148.342C78.2613 147.096 77.2495 146.084 76.006 146.084C74.7625 146.084 73.7507 147.096 73.7507 148.342C73.7507 149.587 74.7625 150.6 76.006 150.6C77.2495 150.6 78.2613 149.587 78.2613 148.342Z" fill="#FBC300"/>
<path d="M93.3547 88.7647H126.317C126.988 88.7647 127.531 88.2204 127.531 87.5489C127.531 86.8774 126.988 86.333 126.317 86.333H93.3547C92.684 86.333 92.1403 86.8774 92.1403 87.5489C92.1403 88.2204 92.684 88.7647 93.3547 88.7647Z" fill="#FBC300"/>
<path d="M93.3547 142.609H126.317C126.988 142.609 127.531 142.065 127.531 141.394C127.531 140.722 126.988 140.178 126.317 140.178H93.3547C92.684 140.178 92.1403 140.722 92.1403 141.394C92.1403 142.065 92.684 142.609 93.3547 142.609Z" fill="#FBC300"/>
<path d="M109.656 123.503C110.326 123.503 110.87 122.959 110.87 122.287V96.2335C110.87 95.562 110.326 95.0176 109.656 95.0176C108.985 95.0176 108.441 95.562 108.441 96.2335V122.287C108.441 122.959 108.985 123.503 109.656 123.503Z" fill="#FBC300"/>
<rect x="37.0879" width="2.85287" height="206.833" fill="#FBC300"/>
<rect x="108.409" width="2.85287" height="75.601" fill="#FBC300"/>
</svg>
