<svg width="81" height="77" viewBox="0 0 81 77" fill="none" xmlns="http://www.w3.org/2000/svg">
<g id="noun_rangoli_1570659 copy">
<g id="Group">
<path id="Shape" fill-rule="evenodd" clip-rule="evenodd" d="M67.9017 29.6084C71.9209 31.0861 76.0098 33.7864 80.1233 37.6881L80.9316 38.4537L80.1478 39.2435C79.8771 39.5164 75.1618 44.198 68.563 46.7865C65.8455 55.7454 58.4694 62.851 49.0879 65.5747C46.3205 71.53 41.6732 75.7447 41.3845 76.0023L40.5516 76.7456L39.7433 75.979C36.0081 72.437 33.3255 68.9235 31.6956 65.4629C22.5217 62.6713 15.3219 55.6766 12.6167 46.8796C5.88957 44.3134 1.05831 39.5199 0.784773 39.2444L0 38.4546L0.809297 37.6872C5.01142 33.7033 9.18618 30.9769 13.2874 29.5208C16.3029 21.8704 22.799 15.8212 30.9391 13.1056C32.4162 9.05999 35.3497 4.93384 39.7433 0.767447L40.5516 0L41.3845 0.744191C41.7015 1.02684 47.2816 6.0877 49.8463 12.9885C58.1892 15.6522 64.856 21.8016 67.9017 29.6084ZM61.0378 28.2828C62.3414 28.3034 63.6562 28.4626 64.9787 28.7551C62.1584 22.832 57.013 18.1137 50.6481 15.6531C50.9178 16.8275 51.081 18.0377 51.1074 19.2756C55.3048 21.2649 58.7561 24.4098 61.0378 28.2828ZM51.0999 56.5129L51.0953 56.3824V56.3823C51.0898 56.2215 51.0844 56.061 51.0725 55.8984C50.9244 53.9494 50.4094 52.0871 49.5482 50.3116C50.8546 49.3635 51.9969 48.2239 52.9099 46.9234C54.9275 47.8241 57.0545 48.3348 59.2853 48.4458C57.428 51.8322 54.5814 54.6238 51.0999 56.5129ZM28.1924 46.8474C26.1918 47.766 24.0837 48.3026 21.8708 48.4395C23.696 51.7588 26.4757 54.5138 29.8695 56.4065L29.8734 56.3549L29.882 56.2402C29.8977 56.0283 29.9133 55.8165 29.9402 55.6059C30.1921 53.6417 30.8061 51.8814 31.5984 50.3089C30.2694 49.3438 29.114 48.1774 28.1924 46.8474ZM61.2095 41.5808C59.7767 41.5808 58.6118 40.4761 58.6118 39.1183C58.6118 37.7596 59.7767 36.655 61.2095 36.655C62.6423 36.655 63.8072 37.7596 63.8072 39.1183C63.8072 40.4761 62.6413 41.5808 61.2095 41.5808ZM55.3265 38.0521H56.3933C56.897 36.0145 58.7929 34.4886 61.0784 34.4305C60.735 33.0771 60.237 31.7873 59.6239 30.5601C57.3083 30.7256 55.252 31.3884 53.473 32.282C54.504 34.0127 55.153 35.968 55.3265 38.0521ZM52.9694 40.2892C52.842 41.5522 52.5034 42.757 51.9893 43.8742C49.9001 42.5879 47.9447 40.7847 46.1356 38.4591C46.9138 37.4287 48.7446 35.2623 51.4658 33.4492C52.2789 34.8374 52.8052 36.3947 52.9694 38.0521H50.0642V40.2883H52.9694V40.2892ZM41.2515 41.4717C44.3812 43.5495 46.7695 45.842 48.4145 48.3277C49.3436 47.6121 50.1595 46.774 50.8395 45.8375C48.2683 44.2812 45.8923 42.045 43.7332 39.1201L43.2917 38.5235L43.6898 37.9001C43.8388 37.6657 46.0488 34.2704 50.1066 31.578C49.3973 30.7775 48.5776 30.07 47.6712 29.4716C46.0762 31.5548 43.936 33.494 41.2525 35.2757L40.6233 35.6934L39.9659 35.3169C39.7386 35.1863 36.2986 33.1746 33.484 29.4698C32.5417 30.0914 31.689 30.8294 30.9608 31.6684C34.9309 34.3455 37.0928 37.6675 37.2409 37.9001L37.637 38.5226L37.1966 39.1192C35.079 41.9869 32.7539 44.1935 30.2411 45.7454C30.9325 46.7195 31.7758 47.5889 32.735 48.3277C35.6468 43.952 39.7169 41.5727 39.965 41.4305L40.6224 41.0539L41.2515 41.4717ZM40.4668 61.2517C39.034 61.2517 37.8691 60.1471 37.8691 58.7884C37.8691 57.4297 39.034 56.3251 40.4668 56.3251C41.8986 56.3251 43.0635 57.4297 43.0635 58.7884C43.0635 60.1471 41.8976 61.2517 40.4668 61.2517ZM39.2868 50.9091V48.1077H41.6439V50.9216C43.3691 50.7821 44.9952 50.3125 46.4488 49.5719C45.083 47.4887 43.1172 45.5432 40.5545 43.7507C39.3613 44.5611 36.7183 46.5647 34.7168 49.5781C36.1043 50.2839 37.6484 50.7481 39.2868 50.9091ZM20.0476 43.7856C22.2444 43.6488 24.0507 42.1631 24.5383 40.1845H25.8192C25.9456 41.8438 26.372 43.4234 27.0568 44.8742C25.091 45.7597 23.0178 46.2177 20.8446 46.2347C20.5286 45.4404 20.256 44.6255 20.0476 43.7856ZM20.0693 34.4528C22.217 34.5968 23.979 36.0289 24.5034 37.9484H25.8296C26.0126 35.9376 26.6398 34.0467 27.6246 32.366C25.8636 31.4591 23.8262 30.7685 21.5266 30.5718C20.9106 31.8025 20.4135 33.0968 20.0693 34.4528ZM19.7221 36.655C21.1549 36.655 22.3198 37.7596 22.3198 39.1183C22.3198 40.4761 21.1549 41.5808 19.7221 41.5808C18.2894 41.5808 17.1245 40.4761 17.1245 39.1183C17.1254 37.7605 18.2903 36.655 19.7221 36.655ZM31.041 40.1845H28.1773C28.2915 41.4466 28.6093 42.6541 29.1121 43.7731C31.1372 42.4949 33.035 40.7212 34.7951 38.4591C34.032 37.4484 32.2578 35.3437 29.6214 33.553C28.8593 34.8857 28.3603 36.3714 28.1886 37.9484H31.041V40.1845ZM32.2785 20.8526C32.2766 20.8373 32.2757 20.8224 32.2747 20.8074C32.2738 20.7924 32.2729 20.7774 32.271 20.7622C33.3189 20.3382 34.4131 19.9939 35.5412 19.7327C35.6779 21.8454 37.2748 23.5851 39.3971 24.0306V25.1764C37.5776 25.3132 35.8543 25.7649 34.2782 26.4716C33.3095 24.8508 32.5473 22.9724 32.2785 20.8526ZM43.0635 19.4474C43.0635 18.0887 41.8986 16.984 40.4668 16.984C39.034 16.984 37.8691 18.0887 37.8691 19.4474C37.8691 20.806 39.034 21.9107 40.4668 21.9107C41.8986 21.9107 43.0635 20.806 43.0635 19.4474ZM45.3961 19.6835C46.5431 19.9366 47.6552 20.272 48.7191 20.6915V20.6951C48.5635 22.7184 47.9504 24.6477 46.8855 26.4751C45.3056 25.7658 43.5785 25.3123 41.7552 25.1746V23.9635C43.7813 23.4429 45.2858 21.7425 45.3961 19.6835ZM39.3971 30.0691V27.4116C38.0502 27.5324 36.7664 27.8598 35.577 28.3562C37.421 30.7095 39.5254 32.299 40.5545 32.9975C42.623 31.5494 44.2991 30.0011 45.5895 28.3624C44.3963 27.8624 43.1088 27.5324 41.7552 27.4116V30.0691H39.3971ZM52.1242 30.3911C51.2121 29.3141 50.1406 28.366 48.9389 27.5825C50.017 25.7381 50.6971 23.7909 50.9735 21.7497C53.9937 23.3651 56.5442 25.6558 58.3949 28.4259C56.0349 28.7274 53.9381 29.4573 52.1242 30.3911ZM41.6458 14.8972C43.0465 15.2246 44.201 16.1155 44.85 17.3042C46.1715 17.535 47.4495 17.8677 48.6805 18.2944C48.5673 17.0896 48.3211 15.9098 47.9627 14.772C45.9441 14.221 43.8285 13.8883 41.6458 13.8069V14.8972ZM39.2877 14.8972C37.8691 15.2282 36.7004 16.1379 36.0571 17.3481C34.7262 17.5949 33.4387 17.9465 32.2012 18.3946C32.2634 17.2336 32.4728 16.0582 32.8246 14.8713C34.8866 14.2783 37.0513 13.9133 39.2887 13.8123V14.8972H39.2877ZM32.22 27.5789C31.2287 25.9134 30.4401 23.9894 30.0638 21.8204C27.0907 23.4384 24.576 25.7148 22.748 28.4546C25.0901 28.781 27.1681 29.5288 28.964 30.4734C29.8912 29.3624 30.9853 28.3821 32.22 27.5789ZM17.565 34.9081C16.2774 35.5047 15.3078 36.6067 14.9418 37.9484H13.842C13.958 35.629 14.4079 33.3929 15.139 31.2757C16.4189 30.8947 17.6847 30.6603 18.9355 30.5637C18.3271 31.9439 17.8734 33.4 17.565 34.9081ZM17.5442 43.3178C16.2322 42.7033 15.2474 41.5665 14.9069 40.1845V40.1854H13.8363C13.908 41.8965 14.1599 43.5638 14.573 45.1729C15.7615 45.5674 16.9971 45.8715 18.2658 46.0513C17.963 45.1649 17.73 44.2498 17.5442 43.3178ZM32.2785 55.8948C32.4794 54.3072 32.9605 52.8554 33.5943 51.5442C35.3176 52.4216 37.2437 52.9789 39.2877 53.147V54.2392C37.1909 54.7293 35.6261 56.478 35.5327 58.5943C34.3734 58.326 33.2548 57.9673 32.1823 57.5281C32.1842 56.9798 32.2097 56.436 32.2785 55.8948ZM39.2868 63.3385C37.9087 63.0174 36.7693 62.1489 36.1147 60.9897C34.8281 60.7553 33.5811 60.4226 32.3804 59.9986C32.5822 61.1927 32.9359 62.4011 33.4378 63.6221C35.3148 64.1149 37.2701 64.4226 39.2868 64.5138V63.3385ZM41.6449 63.3385C43.0059 63.0219 44.1341 62.1704 44.7934 61.0326C46.0479 60.817 47.2656 60.5102 48.4399 60.1185C48.1871 61.3671 47.7966 62.5747 47.3175 63.7294C45.4942 64.1802 43.5964 64.4477 41.6449 64.521V63.3385ZM41.6449 54.2383C43.7577 54.7311 45.3348 56.504 45.4055 58.6426C46.5601 58.3886 47.6759 58.0478 48.7455 57.6256C48.7654 57.1041 48.7606 56.5791 48.7201 56.0514C48.6003 54.4941 48.2022 52.9932 47.5429 51.5504C45.7621 52.4547 43.7634 53.0129 41.6449 53.1569V54.2383ZM60.2229 46.2391C58.0657 46.2391 56.0085 45.8044 54.055 44.9529C54.7464 43.511 55.1879 41.9412 55.3275 40.2892H56.4292C56.9725 42.2802 58.8467 43.7606 61.1029 43.8071C60.8944 44.6416 60.6218 45.4475 60.3106 46.2364C60.3005 46.2361 60.2907 46.2363 60.2809 46.2367L60.2615 46.2377H60.2614H60.2614L60.2612 46.2377L60.2395 46.2388L60.2311 46.239L60.2229 46.2391ZM66.0247 40.1845C65.7059 41.4779 64.8202 42.554 63.6327 43.1917C63.4459 44.1586 63.2082 45.1058 62.8979 46.0218C64.1722 45.8259 65.4078 45.5012 66.5963 45.0933C66.9981 43.5092 67.2443 41.8679 67.3141 40.1845H66.0247ZM65.9907 37.9484C65.6484 36.6943 64.7777 35.6532 63.6128 35.0342C63.3072 33.4877 62.8479 31.9966 62.2301 30.5843C63.4855 30.6988 64.7561 30.9528 66.0398 31.3535C66.7567 33.4466 67.1953 35.6577 67.3103 37.9484H65.9907ZM46.9798 12.2264C45.0367 7.99379 42.0108 4.61899 40.5752 3.15834C37.4361 6.26927 35.1743 9.32564 33.7924 12.3096C35.5676 11.9062 37.4041 11.6539 39.2877 11.5761V7.14853H41.6458V11.5716C43.471 11.6342 45.2537 11.8579 46.9798 12.2264ZM30.1713 15.7774C29.9214 16.9885 29.8072 18.1906 29.8261 19.3838C25.7391 21.3794 22.3717 24.4823 20.1277 28.2739C18.828 28.2784 17.5178 28.4251 16.1982 28.7014C18.9751 22.9062 23.9771 18.2649 30.1713 15.7774ZM12.3564 32.3231C9.40502 33.6514 6.39043 35.7015 3.32963 38.4779C4.75769 39.7409 7.92319 42.2937 11.931 44.1291C11.6839 42.8429 11.5301 41.5262 11.4783 40.1845H6.80828V37.9484H11.4839C11.5716 36.0154 11.8678 34.1335 12.3564 32.3231ZM15.3955 47.7695C16.6378 48.0898 17.9262 48.3152 19.2468 48.4145C21.4388 52.9753 25.1873 56.6972 29.8789 58.97C29.9836 60.2115 30.2326 61.4611 30.6241 62.7196C23.5687 60.029 17.9894 54.5737 15.3955 47.7695ZM34.7253 66.2223C36.1137 68.6373 38.0587 71.0962 40.5752 73.5899C41.8052 72.3386 44.1982 69.6767 46.0818 66.2813C44.6377 66.5443 43.1559 66.7044 41.6449 66.7571V71.0881H39.2868V66.7509C37.7323 66.6874 36.208 66.5094 34.7253 66.2223ZM50.1604 62.8564C50.5518 61.6507 50.8433 60.3957 50.9952 59.1041C55.8311 56.8474 59.6871 53.0674 61.9188 48.3966C63.2431 48.2821 64.5344 48.0424 65.7785 47.7069C63.1497 54.6578 57.4111 60.2106 50.1604 62.8564ZM69.6731 40.1845C69.6232 41.4886 69.476 42.7695 69.2402 44.0218C73.1376 42.1962 76.2051 39.7167 77.6048 38.4788C74.628 35.7793 71.6954 33.7632 68.8223 32.4322C69.293 34.2095 69.5807 36.0539 69.6684 37.9484H74.2346V40.1845H69.6731Z" fill="#DF0E12"/>
<path id="Shape_2" fill-rule="evenodd" clip-rule="evenodd" d="M65.4765 19.9554C64.2804 19.9554 63.1552 19.5127 62.3091 18.7103C61.4621 17.908 60.9961 16.8409 60.9961 15.7058C60.9961 14.5708 61.463 13.5037 62.3091 12.7013C63.1552 11.899 64.2795 11.4572 65.4765 11.4572H65.4774C66.6734 11.4572 67.7987 11.899 68.6448 12.7013C70.3917 14.3588 70.3917 17.0538 68.6439 18.7103C67.7987 19.5127 66.6725 19.9554 65.4765 19.9554ZM65.4774 13.6942C64.9096 13.6942 64.3767 13.9035 63.9758 14.2836C63.5758 14.6629 63.3542 15.1683 63.3542 15.7076C63.3542 16.2443 63.5749 16.7497 63.9758 17.1298C64.7775 17.891 66.1754 17.891 66.9772 17.1298C67.8044 16.3445 67.8053 15.0681 66.9781 14.2836C66.5772 13.9035 66.0443 13.6942 65.4774 13.6942Z" fill="#DF0E12"/>
<path id="Shape_3" fill-rule="evenodd" clip-rule="evenodd" d="M15.455 58.8931C16.651 58.8931 17.7763 59.3358 18.6223 60.1382C19.4684 60.9405 19.9344 62.0076 19.9344 63.1418C19.9344 64.2759 19.4684 65.3421 18.6214 66.1454C17.7744 66.9486 16.6491 67.3904 15.4531 67.3904C14.257 67.3904 13.1318 66.9477 12.2857 66.1454C11.4396 65.343 10.9736 64.2768 10.9736 63.1418C10.9746 62.0067 11.4405 60.9396 12.2866 60.1382C13.1336 59.3349 14.258 58.8931 15.455 58.8931ZM13.9533 64.5648C14.7541 65.3251 16.152 65.3242 16.9547 64.5648C17.3556 64.1856 17.5763 63.6793 17.5763 63.1418C17.5763 62.6033 17.3556 62.0988 16.9547 61.7187C16.5538 61.3385 16.0209 61.1292 15.454 61.1292C14.8871 61.1292 14.3542 61.3385 13.9533 61.7187C13.5524 62.0988 13.3317 62.6042 13.3317 63.1418C13.3317 63.6793 13.5524 64.1847 13.9533 64.5648Z" fill="#DF0E12"/>
<path id="Shape_4" fill-rule="evenodd" clip-rule="evenodd" d="M62.3091 60.1382C63.1542 59.3349 64.2786 58.8931 65.4765 58.8931C66.6744 58.8931 67.7987 59.3349 68.6439 60.1373C70.3917 61.7947 70.3917 64.4888 68.6439 66.1462C67.7987 66.9486 66.6734 67.3904 65.4774 67.3904C64.2814 67.3904 63.1552 66.9477 62.3091 66.1454C61.4621 65.3439 60.9961 64.2777 60.9961 63.1418C60.9961 62.0076 61.463 60.9405 62.3091 60.1382ZM63.9758 64.5639C64.7785 65.3233 66.1754 65.326 66.9772 64.5648C67.8044 63.7795 67.8044 62.504 66.9772 61.7178C66.5763 61.3376 66.0434 61.1283 65.4765 61.1283C64.9096 61.1283 64.3767 61.3376 63.9758 61.7178C63.5749 62.0979 63.3542 62.6033 63.3542 63.1409C63.3542 63.6793 63.5749 64.1838 63.9758 64.5639Z" fill="#DF0E12"/>
<path id="Shape_5" fill-rule="evenodd" clip-rule="evenodd" d="M18.6214 18.7094C17.7753 19.5117 16.651 19.9536 15.454 19.9536C14.258 19.9536 13.1327 19.5117 12.2848 18.7085C10.5379 17.052 10.5379 14.357 12.2848 12.7004C13.1318 11.8981 14.2561 11.4562 15.4531 11.4562C16.6501 11.4562 17.7753 11.899 18.6214 12.7013C20.3683 14.3579 20.3683 17.0529 18.6214 18.7094ZM15.454 13.6924C14.8872 13.6924 14.3542 13.9026 13.9534 14.2827C13.1261 15.0672 13.1261 16.3436 13.9534 17.128C14.7551 17.8883 16.153 17.8883 16.9547 17.128C17.3556 16.7479 17.5763 16.2425 17.5763 15.7049C17.5763 15.1674 17.3556 14.662 16.9547 14.2818C16.5539 13.9017 16.0209 13.6924 15.454 13.6924Z" fill="#DF0E12"/>
<path id="Shape_6" fill-rule="evenodd" clip-rule="evenodd" d="M55.2889 65.1248C55.9463 64.7831 56.6886 64.6024 57.4357 64.6024C59.076 64.6024 60.5833 65.4504 61.3699 66.8135C62.5556 68.869 61.7566 71.4558 59.5881 72.5801C58.9307 72.9209 58.1893 73.1016 57.4432 73.1016C55.8029 73.1016 54.2947 72.2536 53.508 70.8896C52.9327 69.8949 52.8025 68.7473 53.1392 67.6579C53.475 66.5684 54.239 65.6686 55.2889 65.1248ZM55.5756 69.8171C56.1199 70.7599 57.4508 71.1418 58.4563 70.6186C59.4834 70.0855 59.8617 68.86 59.2995 67.886C58.9269 67.2393 58.212 66.8386 57.4347 66.8386C57.0772 66.8386 56.7358 66.9209 56.4198 67.0863C55.9218 67.3439 55.5596 67.7706 55.4002 68.2867C55.2417 68.8019 55.304 69.3457 55.5756 69.8171Z" fill="#DF0E12"/>
<path id="Shape_7" fill-rule="evenodd" clip-rule="evenodd" d="M25.6429 13.7228C24.9854 14.0636 24.2431 14.2443 23.4961 14.2443C21.8567 14.2443 20.3494 13.3964 19.5628 12.0332C18.3781 9.97772 19.1779 7.39095 21.3445 6.2675C22.0029 5.92671 22.7452 5.74603 23.4913 5.74603C25.1307 5.74603 26.6389 6.59398 27.4246 7.95714C27.9991 8.95267 28.1302 10.1012 27.7934 11.1897C27.4567 12.2783 26.6927 13.1781 25.6429 13.7228ZM23.4904 7.98218C23.1329 7.98218 22.7905 8.06537 22.4745 8.22905C21.4492 8.76126 21.07 9.98667 21.6313 10.9607C22.1746 11.9053 23.5083 12.2827 24.511 11.7613C25.009 11.5028 25.3712 11.077 25.5306 10.5609C25.6891 10.0457 25.6278 9.50187 25.3552 9.0296C24.9826 8.3838 24.2686 7.98218 23.4904 7.98218Z" fill="#DF0E12"/>
<path id="Shape_8" fill-rule="evenodd" clip-rule="evenodd" d="M71.6869 50.9422C72.416 50.9422 73.1433 51.1157 73.7903 51.4431C74.8467 51.9762 75.6202 52.868 75.9701 53.9538C76.3201 55.0397 76.2022 56.1891 75.6391 57.1909C74.8581 58.58 73.3423 59.4423 71.6812 59.4423C70.9521 59.4423 70.2258 59.2696 69.5788 58.9431C68.5214 58.4092 67.747 57.5183 67.3989 56.4324C67.0499 55.3465 67.1679 54.1971 67.731 53.1953C68.5091 51.8062 70.0259 50.9422 71.6869 50.9422ZM70.6852 56.9691C71.6982 57.4807 73.0244 57.088 73.5583 56.139C73.8243 55.6649 73.879 55.1211 73.7149 54.6068C73.5489 54.0925 73.1819 53.6694 72.6811 53.4172C72.3698 53.2597 72.035 53.1792 71.686 53.1792C70.8993 53.1792 70.1815 53.588 69.8117 54.2463C69.5448 54.7213 69.4882 55.2669 69.6542 55.7812C69.8193 56.2947 70.1862 56.7168 70.6852 56.9691Z" fill="#DF0E12"/>
<path id="Shape_9" fill-rule="evenodd" clip-rule="evenodd" d="M9.24397 27.9027C8.51484 27.9027 7.78761 27.73 7.14055 27.4036C4.96073 26.3007 4.13162 23.7229 5.29275 21.6558C6.0728 20.2667 7.58859 19.4035 9.24868 19.4035C9.9778 19.4035 10.706 19.5761 11.353 19.9035C13.5329 21.0046 14.362 23.5824 13.2008 25.6504C12.4208 27.0404 10.905 27.9027 9.24397 27.9027ZM9.24963 21.6405C8.46297 21.6405 7.74422 22.0493 7.37447 22.7076C6.82456 23.6862 7.21695 24.9071 8.25074 25.4304C9.26094 25.942 10.5881 25.5502 11.121 24.6003C11.6709 23.6209 11.2785 22.3999 10.2457 21.8785C9.93347 21.7202 9.59862 21.6405 9.24963 21.6405Z" fill="#DF0E12"/>
<path id="Shape_10" fill-rule="evenodd" clip-rule="evenodd" d="M23.9021 64.8117C24.6284 64.8117 25.3537 64.9834 25.9989 65.3072C27.0563 65.8368 27.8326 66.7267 28.1844 67.8117C28.5362 68.8976 28.4212 70.0479 27.8599 71.0506C27.0818 72.4441 25.5631 73.3109 23.8983 73.3109C23.172 73.3109 22.4476 73.1382 21.8025 72.8144C19.6217 71.7169 18.786 69.14 19.9424 67.0702C20.7206 65.6775 22.2373 64.8117 23.9021 64.8117ZM22.9079 70.8395C23.9247 71.3511 25.2453 70.954 25.7773 70.0032C26.0433 69.5282 26.098 68.9835 25.931 68.47C25.7641 67.9566 25.3962 67.5353 24.8963 67.2849C24.5841 67.1275 24.2502 67.0488 23.9021 67.0488C23.1136 67.0488 22.3948 67.4584 22.026 68.1176C21.4789 69.0989 21.8741 70.3198 22.9079 70.8395Z" fill="#DF0E12"/>
<path id="Shape_11" fill-rule="evenodd" clip-rule="evenodd" d="M57.0275 14.0359C56.3012 14.0359 55.5768 13.8641 54.9316 13.5403C53.8743 13.009 53.0971 12.1199 52.7462 11.035C52.3953 9.94997 52.5104 8.80059 53.0706 7.797C53.8498 6.40344 55.3674 5.5376 57.0322 5.5376C57.7585 5.5376 58.4829 5.70933 59.1272 6.03313C61.3108 7.13063 62.1455 9.70668 60.9882 11.7765C60.21 13.17 58.6923 14.0359 57.0275 14.0359ZM57.0322 7.77375C56.2427 7.77375 55.524 8.18431 55.1543 8.84442C54.8892 9.31938 54.8336 9.8641 55.0005 10.3784C55.1675 10.8927 55.5353 11.314 56.0352 11.5654C57.0539 12.0752 58.3726 11.6808 58.9046 10.7299C59.4526 9.74961 59.0574 8.52867 58.0226 8.00899C57.7133 7.85246 57.3793 7.77375 57.0322 7.77375Z" fill="#DF0E12"/>
<path id="Shape_12" fill-rule="evenodd" clip-rule="evenodd" d="M13.3986 53.5433C13.9749 54.5352 14.1108 55.6828 13.7769 56.7732C13.4439 57.8644 12.6818 58.7669 11.6329 59.3134C10.9726 59.6578 10.2265 59.8403 9.47569 59.8403C7.84012 59.8403 6.33377 58.9968 5.54711 57.6372C4.35769 55.5853 5.15095 52.9976 7.3138 51.8679C7.975 51.5227 8.72016 51.3402 9.47004 51.3402C11.1047 51.3402 12.611 52.1846 13.3986 53.5433ZM10.4963 57.3546C10.9934 57.0952 11.3546 56.6676 11.5121 56.1515C11.6697 55.6354 11.6055 55.0925 11.3329 54.622C10.9594 53.9762 10.2454 53.5764 9.47004 53.5764C9.11161 53.5764 8.76827 53.6595 8.45134 53.8259C7.42604 54.3617 7.04969 55.588 7.61374 56.5603C8.15705 57.4986 9.49739 57.876 10.4963 57.3546Z" fill="#DF0E12"/>
<path id="Shape_13" fill-rule="evenodd" clip-rule="evenodd" d="M67.5308 25.3043C66.9535 24.3096 66.8196 23.1621 67.1535 22.0726C67.4874 20.9831 68.2486 20.0815 69.2975 19.5341C69.9577 19.1898 70.7029 19.0082 71.4528 19.0082C73.0883 19.0082 74.5947 19.8517 75.3823 21.2094C76.5727 23.2622 75.7803 25.8499 73.6156 26.9796C72.9553 27.324 72.2092 27.5064 71.4594 27.5064C69.8247 27.5064 68.3193 26.663 67.5308 25.3043ZM70.4341 21.493C69.937 21.7524 69.5757 22.1799 69.4182 22.696C69.2597 23.2121 69.3229 23.7551 69.5955 24.2256C70.1426 25.1674 71.4735 25.5449 72.479 25.0198C73.5043 24.485 73.8807 23.2587 73.3157 22.2864C72.9421 21.6433 72.2291 21.2434 71.4528 21.2434C71.0991 21.2434 70.7472 21.3293 70.4341 21.493Z" fill="#DF0E12"/>
</g>
</g>
</svg>
